<?xml version="1.0" encoding="us-ascii" standalone="no"?><svg xmlns="http://www.w3.org/2000/svg" xmlns:xlink="http://www.w3.org/1999/xlink" contentStyleType="text/css" height="526px" preserveAspectRatio="none" style="width:547px;height:526px;background:#FFFFFF;" version="1.1" viewBox="0 0 547 526" width="547px" zoomAndPan="magnify"><defs/><g><!--cluster dart_decorator--><g id="cluster_dart_decorator"><path d="M8.5,6 L131.5,6 A3.75,3.75 0 0 1 134,8.5 L141,28.2969 L537.5,28.2969 A2.5,2.5 0 0 1 540,30.7969 L540,516.5 A2.5,2.5 0 0 1 537.5,519 L8.5,519 A2.5,2.5 0 0 1 6,516.5 L6,8.5 A2.5,2.5 0 0 1 8.5,6 " fill="none" style="stroke:#000000;stroke-width:1.5;"/><line style="stroke:#000000;stroke-width:1.5;" x1="6" x2="141" y1="28.2969" y2="28.2969"/><text fill="#000000" font-family="sans-serif" font-size="14" font-weight="bold" lengthAdjust="spacing" textLength="122" x="10" y="20.9951">dart_decorator</text></g><!--cluster dart_decorator.dart--><g id="cluster_dart_decorator.dart"><path d="M32.5,49 L195.5,49 A3.75,3.75 0 0 1 198,51.5 L205,71.2969 L513.5,71.2969 A2.5,2.5 0 0 1 516,73.7969 L516,492.5 A2.5,2.5 0 0 1 513.5,495 L32.5,495 A2.5,2.5 0 0 1 30,492.5 L30,51.5 A2.5,2.5 0 0 1 32.5,49 " fill="none" style="stroke:#000000;stroke-width:1.5;"/><line style="stroke:#000000;stroke-width:1.5;" x1="30" x2="205" y1="71.2969" y2="71.2969"/><text fill="#000000" font-family="sans-serif" font-size="14" font-weight="bold" lengthAdjust="spacing" textLength="162" x="34" y="63.9951">dart_decorator.dart</text></g><!--class Weather--><g id="elem_Weather"><rect codeLine="3" fill="#F1F1F1" height="80.5938" id="Weather" rx="2.5" ry="2.5" style="stroke:#181818;stroke-width:0.5;" width="209" x="290.5" y="84"/><ellipse cx="360.25" cy="100" fill="#A9DCDF" rx="11" ry="11" style="stroke:#181818;stroke-width:1.0;"/><path d="M362.3281,101.8125 L362.7188,102.7969 L362.3281,102.7969 C361.875,102.7969 361.7656,102.8125 361.6094,102.9219 C361.3594,103.0781 361.2031,103.3594 361.2031,103.6563 C361.2031,103.9219 361.3438,104.1719 361.5625,104.3281 C361.7031,104.4531 361.9063,104.5 362.3281,104.5 L364.6875,104.5 C365.0469,104.5 365.2656,104.4688 365.4063,104.375 C365.6563,104.2344 365.8125,103.9375 365.8125,103.6563 C365.8125,103.375 365.6719,103.125 365.4531,102.9688 C365.2813,102.8281 365.125,102.7969 364.6563,102.7969 L361.2656,94.5938 L357.5938,94.5938 C357.1406,94.5938 357.0156,94.6094 356.8594,94.7031 C356.6094,94.875 356.4531,95.1563 356.4531,95.4375 C356.4531,95.7188 356.5938,95.9688 356.8125,96.1406 C356.9844,96.25 357.1563,96.2813 357.5938,96.2813 L358.6719,96.2813 L356.0313,102.7969 C355.6094,102.7969 355.4531,102.8125 355.2969,102.9219 C355.0469,103.0781 354.8906,103.3594 354.8906,103.6563 C354.8906,104.2188 355.2656,104.5 356.0156,104.5 L358.2813,104.5 C358.6406,104.5 358.8594,104.4688 358.9844,104.375 C359.25,104.2344 359.3906,103.9375 359.3906,103.6563 C359.3906,103.375 359.2656,103.125 359.0469,102.9531 C358.875,102.8281 358.7344,102.7969 358.2813,102.7969 L357.8906,102.7969 L358.2813,101.8125 L362.3281,101.8125 Z M361.625,100.1094 L358.9531,100.1094 L360.2969,96.8438 L361.625,100.1094 Z " fill="#000000"/><text fill="#000000" font-family="sans-serif" font-size="14" font-style="italic" lengthAdjust="spacing" textLength="61" x="380.75" y="104.8467">Weather</text><line style="stroke:#181818;stroke-width:0.5;" x1="291.5" x2="498.5" y1="116" y2="116"/><line style="stroke:#181818;stroke-width:0.5;" x1="291.5" x2="498.5" y1="124" y2="124"/><ellipse cx="301.5" cy="137.6484" fill="#84BE84" rx="3" ry="3" style="stroke:#038048;stroke-width:1.0;"/><text fill="#000000" font-family="sans-serif" font-size="14" lengthAdjust="spacing" textLength="167" x="310.5" y="140.9951">String getDescription()</text><ellipse cx="301.5" cy="153.9453" fill="#84BE84" rx="3" ry="3" style="stroke:#038048;stroke-width:1.0;"/><text fill="#000000" font-family="sans-serif" font-size="14" lengthAdjust="spacing" textLength="183" x="310.5" y="157.292">double getTemperature()</text></g><!--class CurrentWeather--><g id="elem_CurrentWeather"><rect codeLine="8" fill="#F1F1F1" height="113.1875" id="CurrentWeather" rx="2.5" ry="2.5" style="stroke:#181818;stroke-width:0.5;" width="209" x="46.5" y="225"/><ellipse cx="88.5" cy="241" fill="#ADD1B2" rx="11" ry="11" style="stroke:#181818;stroke-width:1.0;"/><path d="M90.8438,236.6719 C89.9063,236.2344 89.3125,236.0938 88.4375,236.0938 C85.8125,236.0938 83.8125,238.1719 83.8125,240.8906 L83.8125,242.0156 C83.8125,244.5938 85.9219,246.4844 88.8125,246.4844 C90.0313,246.4844 91.1875,246.1875 91.9375,245.6406 C92.5156,245.2344 92.8438,244.7813 92.8438,244.3906 C92.8438,243.9375 92.4531,243.5469 91.9844,243.5469 C91.7656,243.5469 91.5625,243.625 91.375,243.8125 C90.9219,244.2969 90.9219,244.2969 90.7344,244.3906 C90.3125,244.6563 89.625,244.7813 88.8594,244.7813 C86.8125,244.7813 85.5156,243.6875 85.5156,241.9844 L85.5156,240.8906 C85.5156,239.1094 86.7656,237.7969 88.5,237.7969 C89.0781,237.7969 89.6875,237.9531 90.1563,238.2031 C90.6406,238.4844 90.8125,238.7031 90.9063,239.1094 C90.9688,239.5156 91,239.6406 91.1406,239.7656 C91.2813,239.9063 91.5156,240.0156 91.7344,240.0156 C92,240.0156 92.2656,239.875 92.4375,239.6563 C92.5469,239.5 92.5781,239.3125 92.5781,238.8906 L92.5781,237.4688 C92.5781,237.0313 92.5625,236.9063 92.4688,236.75 C92.3125,236.4844 92.0313,236.3438 91.7344,236.3438 C91.4375,236.3438 91.2344,236.4375 91.0156,236.75 L90.8438,236.6719 Z " fill="#000000"/><text fill="#000000" font-family="sans-serif" font-size="14" lengthAdjust="spacing" textLength="117" x="108.5" y="245.8467">CurrentWeather</text><line style="stroke:#181818;stroke-width:0.5;" x1="47.5" x2="254.5" y1="257" y2="257"/><rect fill="none" height="6" style="stroke:#C82930;stroke-width:1.0;" width="6" x="54.5" y="267.6484"/><text fill="#000000" font-family="sans-serif" font-size="14" lengthAdjust="spacing" textLength="137" x="66.5" y="273.9951">String _description</text><rect fill="none" height="6" style="stroke:#C82930;stroke-width:1.0;" width="6" x="54.5" y="283.9453"/><text fill="#000000" font-family="sans-serif" font-size="14" lengthAdjust="spacing" textLength="153" x="66.5" y="290.292">double _temperature</text><line style="stroke:#181818;stroke-width:0.5;" x1="47.5" x2="254.5" y1="297.5938" y2="297.5938"/><ellipse cx="57.5" cy="311.2422" fill="#84BE84" rx="3" ry="3" style="stroke:#038048;stroke-width:1.0;"/><text fill="#000000" font-family="sans-serif" font-size="14" lengthAdjust="spacing" textLength="167" x="66.5" y="314.5889">String getDescription()</text><ellipse cx="57.5" cy="327.5391" fill="#84BE84" rx="3" ry="3" style="stroke:#038048;stroke-width:1.0;"/><text fill="#000000" font-family="sans-serif" font-size="14" lengthAdjust="spacing" textLength="183" x="66.5" y="330.8857">double getTemperature()</text></g><!--class WeatherDecorator--><g id="elem_WeatherDecorator"><rect codeLine="17" fill="#F1F1F1" height="96.8906" id="WeatherDecorator" rx="2.5" ry="2.5" style="stroke:#181818;stroke-width:0.5;" width="209" x="290.5" y="233"/><ellipse cx="324.4" cy="249" fill="#ADD1B2" rx="11" ry="11" style="stroke:#181818;stroke-width:1.0;"/><path d="M326.7438,244.6719 C325.8063,244.2344 325.2125,244.0938 324.3375,244.0938 C321.7125,244.0938 319.7125,246.1719 319.7125,248.8906 L319.7125,250.0156 C319.7125,252.5938 321.8219,254.4844 324.7125,254.4844 C325.9313,254.4844 327.0875,254.1875 327.8375,253.6406 C328.4156,253.2344 328.7438,252.7813 328.7438,252.3906 C328.7438,251.9375 328.3531,251.5469 327.8844,251.5469 C327.6656,251.5469 327.4625,251.625 327.275,251.8125 C326.8219,252.2969 326.8219,252.2969 326.6344,252.3906 C326.2125,252.6563 325.525,252.7813 324.7594,252.7813 C322.7125,252.7813 321.4156,251.6875 321.4156,249.9844 L321.4156,248.8906 C321.4156,247.1094 322.6656,245.7969 324.4,245.7969 C324.9781,245.7969 325.5875,245.9531 326.0563,246.2031 C326.5406,246.4844 326.7125,246.7031 326.8063,247.1094 C326.8688,247.5156 326.9,247.6406 327.0406,247.7656 C327.1813,247.9063 327.4156,248.0156 327.6344,248.0156 C327.9,248.0156 328.1656,247.875 328.3375,247.6563 C328.4469,247.5 328.4781,247.3125 328.4781,246.8906 L328.4781,245.4688 C328.4781,245.0313 328.4625,244.9063 328.3688,244.75 C328.2125,244.4844 327.9313,244.3438 327.6344,244.3438 C327.3375,244.3438 327.1344,244.4375 326.9156,244.75 L326.7438,244.6719 Z " fill="#000000"/><text fill="#000000" font-family="sans-serif" font-size="14" lengthAdjust="spacing" textLength="135" x="342.6" y="253.8467">WeatherDecorator</text><line style="stroke:#181818;stroke-width:0.5;" x1="291.5" x2="498.5" y1="265" y2="265"/><rect fill="none" height="6" style="stroke:#C82930;stroke-width:1.0;" width="6" x="298.5" y="275.6484"/><text fill="#000000" font-family="sans-serif" font-size="14" lengthAdjust="spacing" textLength="132" x="310.5" y="281.9951">Weather _weather</text><line style="stroke:#181818;stroke-width:0.5;" x1="291.5" x2="498.5" y1="289.2969" y2="289.2969"/><ellipse cx="301.5" cy="302.9453" fill="#84BE84" rx="3" ry="3" style="stroke:#038048;stroke-width:1.0;"/><text fill="#000000" font-family="sans-serif" font-size="14" lengthAdjust="spacing" textLength="167" x="310.5" y="306.292">String getDescription()</text><ellipse cx="301.5" cy="319.2422" fill="#84BE84" rx="3" ry="3" style="stroke:#038048;stroke-width:1.0;"/><text fill="#000000" font-family="sans-serif" font-size="14" lengthAdjust="spacing" textLength="183" x="310.5" y="322.5889">double getTemperature()</text></g><!--class FahrenheitDecorator--><g id="elem_FahrenheitDecorator"><rect codeLine="26" fill="#F1F1F1" height="80.5938" id="FahrenheitDecorator" rx="2.5" ry="2.5" style="stroke:#181818;stroke-width:0.5;" width="209" x="58.5" y="398"/><ellipse cx="85.2" cy="414" fill="#ADD1B2" rx="11" ry="11" style="stroke:#181818;stroke-width:1.0;"/><path d="M87.5438,409.6719 C86.6063,409.2344 86.0125,409.0938 85.1375,409.0938 C82.5125,409.0938 80.5125,411.1719 80.5125,413.8906 L80.5125,415.0156 C80.5125,417.5938 82.6219,419.4844 85.5125,419.4844 C86.7313,419.4844 87.8875,419.1875 88.6375,418.6406 C89.2156,418.2344 89.5438,417.7813 89.5438,417.3906 C89.5438,416.9375 89.1531,416.5469 88.6844,416.5469 C88.4656,416.5469 88.2625,416.625 88.075,416.8125 C87.6219,417.2969 87.6219,417.2969 87.4344,417.3906 C87.0125,417.6563 86.325,417.7813 85.5594,417.7813 C83.5125,417.7813 82.2156,416.6875 82.2156,414.9844 L82.2156,413.8906 C82.2156,412.1094 83.4656,410.7969 85.2,410.7969 C85.7781,410.7969 86.3875,410.9531 86.8563,411.2031 C87.3406,411.4844 87.5125,411.7031 87.6063,412.1094 C87.6688,412.5156 87.7,412.6406 87.8406,412.7656 C87.9813,412.9063 88.2156,413.0156 88.4344,413.0156 C88.7,413.0156 88.9656,412.875 89.1375,412.6563 C89.2469,412.5 89.2781,412.3125 89.2781,411.8906 L89.2781,410.4688 C89.2781,410.0313 89.2625,409.9063 89.1688,409.75 C89.0125,409.4844 88.7313,409.3438 88.4344,409.3438 C88.1375,409.3438 87.9344,409.4375 87.7156,409.75 L87.5438,409.6719 Z " fill="#000000"/><text fill="#000000" font-family="sans-serif" font-size="14" lengthAdjust="spacing" textLength="151" x="101.8" y="418.8467">FahrenheitDecorator</text><line style="stroke:#181818;stroke-width:0.5;" x1="59.5" x2="266.5" y1="430" y2="430"/><line style="stroke:#181818;stroke-width:0.5;" x1="59.5" x2="266.5" y1="438" y2="438"/><ellipse cx="69.5" cy="451.6484" fill="#84BE84" rx="3" ry="3" style="stroke:#038048;stroke-width:1.0;"/><text fill="#000000" font-family="sans-serif" font-size="14" lengthAdjust="spacing" textLength="167" x="78.5" y="454.9951">String getDescription()</text><ellipse cx="69.5" cy="467.9453" fill="#84BE84" rx="3" ry="3" style="stroke:#038048;stroke-width:1.0;"/><text fill="#000000" font-family="sans-serif" font-size="14" lengthAdjust="spacing" textLength="183" x="78.5" y="471.292">double getTemperature()</text></g><!--class HumidityDecorator--><g id="elem_HumidityDecorator"><rect codeLine="33" fill="#F1F1F1" height="80.5938" id="HumidityDecorator" rx="2.5" ry="2.5" style="stroke:#181818;stroke-width:0.5;" width="193" x="302.5" y="398"/><ellipse cx="328.3" cy="414" fill="#ADD1B2" rx="11" ry="11" style="stroke:#181818;stroke-width:1.0;"/><path d="M330.6438,409.6719 C329.7063,409.2344 329.1125,409.0938 328.2375,409.0938 C325.6125,409.0938 323.6125,411.1719 323.6125,413.8906 L323.6125,415.0156 C323.6125,417.5938 325.7219,419.4844 328.6125,419.4844 C329.8313,419.4844 330.9875,419.1875 331.7375,418.6406 C332.3156,418.2344 332.6438,417.7813 332.6438,417.3906 C332.6438,416.9375 332.2531,416.5469 331.7844,416.5469 C331.5656,416.5469 331.3625,416.625 331.175,416.8125 C330.7219,417.2969 330.7219,417.2969 330.5344,417.3906 C330.1125,417.6563 329.425,417.7813 328.6594,417.7813 C326.6125,417.7813 325.3156,416.6875 325.3156,414.9844 L325.3156,413.8906 C325.3156,412.1094 326.5656,410.7969 328.3,410.7969 C328.8781,410.7969 329.4875,410.9531 329.9563,411.2031 C330.4406,411.4844 330.6125,411.7031 330.7063,412.1094 C330.7688,412.5156 330.8,412.6406 330.9406,412.7656 C331.0813,412.9063 331.3156,413.0156 331.5344,413.0156 C331.8,413.0156 332.0656,412.875 332.2375,412.6563 C332.3469,412.5 332.3781,412.3125 332.3781,411.8906 L332.3781,410.4688 C332.3781,410.0313 332.3625,409.9063 332.2688,409.75 C332.1125,409.4844 331.8313,409.3438 331.5344,409.3438 C331.2375,409.3438 331.0344,409.4375 330.8156,409.75 L330.6438,409.6719 Z " fill="#000000"/><text fill="#000000" font-family="sans-serif" font-size="14" lengthAdjust="spacing" textLength="137" x="344.7" y="418.8467">HumidityDecorator</text><line style="stroke:#181818;stroke-width:0.5;" x1="303.5" x2="494.5" y1="430" y2="430"/><line style="stroke:#181818;stroke-width:0.5;" x1="303.5" x2="494.5" y1="438" y2="438"/><ellipse cx="313.5" cy="451.6484" fill="#84BE84" rx="3" ry="3" style="stroke:#038048;stroke-width:1.0;"/><text fill="#000000" font-family="sans-serif" font-size="14" lengthAdjust="spacing" textLength="167" x="322.5" y="454.9951">String getDescription()</text><ellipse cx="313.5" cy="467.9453" fill="#84BE84" rx="3" ry="3" style="stroke:#038048;stroke-width:1.0;"/><text fill="#000000" font-family="sans-serif" font-size="14" lengthAdjust="spacing" textLength="147" x="322.5" y="471.292">String getHumidity()</text></g><!--reverse link Weather to CurrentWeather--><g id="link_Weather_CurrentWeather"><path codeLine="15" d="M315.76,175.837 C291.044,191.538 263.647,208.941 238.404,224.977 " fill="none" id="Weather-backto-CurrentWeather" style="stroke:#181818;stroke-width:1.0;"/><polygon fill="none" points="312.162,169.83,332.797,165.014,319.669,181.647,312.162,169.83" style="stroke:#181818;stroke-width:1.0;"/></g><!--reverse link WeatherDecorator to Weather--><g id="link_WeatherDecorator_Weather"><path codeLine="23" d="M408.218,219.679 C408.848,201.303 408.422,181.614 406.941,165.014 " fill="none" id="WeatherDecorator-backto-Weather" style="stroke:#181818;stroke-width:1.0;"/><polygon fill="none" points="407.573,232.765,411.8635,226.9692,408.1638,220.7796,403.8732,226.5754,407.573,232.765" style="stroke:#181818;stroke-width:1.0;"/></g><!--reverse link Weather to WeatherDecorator--><g id="link_Weather_WeatherDecorator"><path codeLine="24" d="M382.553,185.227 C382.008,200.97 382.199,217.746 383.125,232.765 " fill="none" id="Weather-backto-WeatherDecorator" style="stroke:#181818;stroke-width:1.0;"/><polygon fill="none" points="375.579,184.576,383.723,165.014,389.555,185.385,375.579,184.576" style="stroke:#181818;stroke-width:1.0;"/></g><!--reverse link WeatherDecorator to FahrenheitDecorator--><g id="link_WeatherDecorator_FahrenheitDecorator"><path codeLine="31" d="M307.029,341.274 C278.735,360.177 248.074,380.662 222.343,397.852 " fill="none" id="WeatherDecorator-backto-FahrenheitDecorator" style="stroke:#181818;stroke-width:1.0;"/><polygon fill="none" points="303.297,335.349,323.816,330.058,311.074,346.99,303.297,335.349" style="stroke:#181818;stroke-width:1.0;"/></g><!--reverse link WeatherDecorator to HumidityDecorator--><g id="link_WeatherDecorator_HumidityDecorator"><path codeLine="38" d="M396.751,350.349 C397.171,366.618 397.606,383.464 397.98,397.958 " fill="none" id="WeatherDecorator-backto-HumidityDecorator" style="stroke:#181818;stroke-width:1.0;"/><polygon fill="none" points="389.751,350.444,396.233,330.27,403.746,350.083,389.751,350.444" style="stroke:#181818;stroke-width:1.0;"/></g><!--SRC=[lP7Dgi8m48NtUOh1bIBr0O8xHTmhk2nZEjY0RSfaokLoh-zkgz7wjp22tML-adE-4qy29HRaApIqeWePnJ5ehHHklJ0Q0RD7xs6G8KkQaN6d5QtlwqbRQhqXb9nu07yAOBmIjkKETYHpyePj9TQLmr4xoboztLCxMbDHKVD6pTIC3ah5wCrgPYhbJZO9iitoLRHj1ybKEi7FJKR6CVrFai-Gul88j-QNTaWaj27zEHzwuhwnuTxclu9_B-8dUt4XBp1lVYWdAmyvzvnf1F4hot7GoxgmcPNV2EHkTBdS6- -psoC0]--></g></svg>